<?xml version="1.0" encoding="UTF-8"?><svg xmlns="http://www.w3.org/2000/svg" xmlns:xlink="http://www.w3.org/1999/xlink" version="1.1" x="0px" y="0px" viewBox="0 0 32 32" xml:space="preserve"><path fill="#0BA4E0" d="M3.22.003v24.825h8.824l3.898 7.169 3.897-7.169h8.941V.003z" id="Layer_4_copy_2"/><path fill="#FFF" d="M18.101 6.525c-1.31.477-2.138 1.706-2.044 3.052l.032.519-.524-.064c-1.907-.244-3.574-1.07-4.99-2.459l-.692-.688-.178.509c-.377 1.134-.136 2.332.65 3.137.419.445.325.509-.398.244-.252-.085-.472-.148-.493-.117-.073.075.178 1.039.377 1.42.273.53.828 1.049 1.436 1.357l.514.244-.608.011c-.587 0-.608.011-.545.234.21.689 1.038 1.42 1.96 1.738l.65.222-.566.339a5.885 5.885 0 0 1-2.809.784c-.472.011-.86.053-.86.085 0 .106 1.279.699 2.023.932 2.233.689 4.885.392 6.877-.784 1.415-.837 2.83-2.501 3.491-4.113.357-.858.713-2.427.713-3.179 0-.488.032-.551.618-1.134.346-.339.671-.71.734-.816.105-.202.094-.202-.44-.022-.891.318-1.017.276-.576-.201.325-.339.713-.954.713-1.134 0-.032-.157.021-.336.117-.189.106-.608.265-.922.36l-.566.181-.514-.35c-.283-.191-.681-.403-.891-.466-.536-.149-1.354-.128-1.836.042z" id="Official_copy_2"/><metadata><rdf:RDF xmlns:rdf="http://www.w3.org/1999/02/22-rdf-syntax-ns#" xmlns:rdfs="http://www.w3.org/2000/01/rdf-schema#" xmlns:dc="http://purl.org/dc/elements/1.1/"><rdf:Description about="https://iconscout.com/legal#licenses" dc:title="social,media,logo,twitter" dc:description="social,media,logo,twitter" dc:publisher="Iconscout" dc:date="2017-09-15" dc:format="image/svg+xml" dc:language="en"><dc:creator><rdf:Bag><rdf:li>Epicflaticon by Alfredo</rdf:li></rdf:Bag></dc:creator></rdf:Description></rdf:RDF></metadata></svg>